<mxfile host="app.diagrams.net" modified="2021-04-08T18:20:41.265Z" agent="5.0 (Windows NT 10.0; Win64; x64) AppleWebKit/537.36 (KHTML, like Gecko) Chrome/89.0.4389.114 Safari/537.36" etag="pz3721ERp94l53ScSr3a" version="14.5.8" type="github">
  <diagram name="Page-1" id="5f0bae14-7c28-e335-631c-24af17079c00">
    <mxGraphModel dx="1502" dy="604" grid="1" gridSize="10" guides="1" tooltips="1" connect="1" arrows="1" fold="1" page="1" pageScale="1" pageWidth="1100" pageHeight="850" background="#ffffff" math="0" shadow="0">
      <root>
        <mxCell id="0" />
        <mxCell id="1" parent="0" />
        <mxCell id="ngJWHtQWBfCgf-anMFrI-11" value="" style="rounded=0;whiteSpace=wrap;html=1;" vertex="1" parent="1">
          <mxGeometry x="520" y="80" width="360" height="400" as="geometry" />
        </mxCell>
        <mxCell id="ngJWHtQWBfCgf-anMFrI-12" value="" style="rounded=0;whiteSpace=wrap;html=1;" vertex="1" parent="1">
          <mxGeometry x="500" y="100" width="360" height="400" as="geometry" />
        </mxCell>
        <mxCell id="ngJWHtQWBfCgf-anMFrI-13" value="" style="rounded=0;whiteSpace=wrap;html=1;" vertex="1" parent="1">
          <mxGeometry x="480" y="120" width="360" height="400" as="geometry" />
        </mxCell>
        <mxCell id="ngJWHtQWBfCgf-anMFrI-15" value="ГВЦ1" style="text;html=1;strokeColor=none;fillColor=none;align=center;verticalAlign=middle;whiteSpace=wrap;rounded=0;" vertex="1" parent="1">
          <mxGeometry x="800" y="120" width="40" height="20" as="geometry" />
        </mxCell>
        <mxCell id="ngJWHtQWBfCgf-anMFrI-17" value="ГВЦ2" style="text;html=1;strokeColor=none;fillColor=none;align=center;verticalAlign=middle;whiteSpace=wrap;rounded=0;" vertex="1" parent="1">
          <mxGeometry x="820" y="100" width="40" height="20" as="geometry" />
        </mxCell>
        <mxCell id="ngJWHtQWBfCgf-anMFrI-18" value="ГВЦ3" style="text;html=1;strokeColor=none;fillColor=none;align=center;verticalAlign=middle;whiteSpace=wrap;rounded=0;" vertex="1" parent="1">
          <mxGeometry x="840" y="80" width="40" height="20" as="geometry" />
        </mxCell>
        <mxCell id="ngJWHtQWBfCgf-anMFrI-20" value="АСП" style="rounded=0;whiteSpace=wrap;html=1;" vertex="1" parent="1">
          <mxGeometry x="480" y="480" width="70" height="40" as="geometry" />
        </mxCell>
        <mxCell id="ngJWHtQWBfCgf-anMFrI-21" value="СЖО" style="rounded=0;whiteSpace=wrap;html=1;" vertex="1" parent="1">
          <mxGeometry x="480" y="120" width="70" height="40" as="geometry" />
        </mxCell>
      </root>
    </mxGraphModel>
  </diagram>
</mxfile>
